<svg width="92" height="30" viewBox="0 0 92 30" fill="none" xmlns="http://www.w3.org/2000/svg">
<path d="M3.87859 29.5604C3.15859 29.5604 2.58526 29.307 2.15859 28.8004C1.73193 28.3204 1.51859 27.7604 1.51859 27.1204C1.51859 26.6137 1.66526 26.187 1.95859 25.8404C2.25193 25.4937 2.65193 25.3204 3.15859 25.3204C3.58526 25.3204 3.89193 25.4137 4.07859 25.6004C4.26526 25.787 4.39859 26.0004 4.47859 26.2404C4.55859 26.4804 4.63859 26.6937 4.71859 26.8804C4.79859 27.067 4.95859 27.1604 5.19859 27.1604C5.49193 27.1604 5.75859 26.947 5.99859 26.5204C6.23859 26.1204 6.57193 25.2537 6.99859 23.9204C7.26526 23.1204 7.42526 22.427 7.47859 21.8404C7.55859 21.2537 7.54526 20.627 7.43859 19.9604C7.35859 19.2937 7.15859 18.4804 6.83859 17.5204L2.47859 3.64035C2.29193 3.00035 2.10526 2.58702 1.91859 2.40035C1.75859 2.21368 1.49193 2.08035 1.11859 2.00035L0.518594 1.88035C0.171927 1.80035 -0.00140627 1.62702 -0.00140627 1.36035C-0.00140627 1.09368 0.18526 0.96035 0.558594 0.96035H7.15859C7.53193 0.96035 7.71859 1.09368 7.71859 1.36035C7.71859 1.65368 7.54526 1.82702 7.19859 1.88035L6.55859 1.96035C5.91859 2.04035 5.50526 2.20035 5.31859 2.44035C5.15859 2.65368 5.17193 3.05368 5.35859 3.64035L8.87859 15.3604C8.95859 15.627 9.07859 15.7604 9.23859 15.7604C9.42526 15.7604 9.55859 15.627 9.63859 15.3604L13.0386 4.36035C13.2519 3.64035 13.3053 3.10702 13.1986 2.76035C13.1186 2.38702 12.7453 2.14702 12.0786 2.04035L11.2386 1.88035C10.8919 1.80035 10.7186 1.62702 10.7186 1.36035C10.7186 1.09368 10.9053 0.96035 11.2786 0.96035H16.3586C16.7319 0.96035 16.9186 1.10702 16.9186 1.40035C16.9186 1.66702 16.7586 1.85368 16.4386 1.96035L16.0786 2.08035C15.6786 2.21368 15.3453 2.45368 15.0786 2.80035C14.8119 3.14702 14.5319 3.74702 14.2386 4.60035L8.27859 23.2004C7.69193 25.067 7.15859 26.4537 6.67859 27.3604C6.22526 28.267 5.78526 28.8537 5.35859 29.1204C4.93193 29.4137 4.43859 29.5604 3.87859 29.5604ZM23.4533 21.7204C22.7866 21.7204 22.1466 21.5737 21.5333 21.2804C20.9199 20.987 20.4133 20.5204 20.0133 19.8804C19.6133 19.2404 19.4133 18.387 19.4133 17.3204V3.40035C19.4133 2.92035 19.3333 2.58702 19.1733 2.40035C19.0399 2.21368 18.7866 2.10702 18.4133 2.08035L17.7333 2.00035C17.2799 1.94702 17.0533 1.77368 17.0533 1.48035C17.0533 1.13368 17.3066 0.96035 17.8133 0.96035H21.5333C21.9333 0.96035 22.1333 1.16035 22.1333 1.56035V16.4804C22.1333 17.707 22.3599 18.587 22.8133 19.1204C23.2933 19.627 23.9466 19.8804 24.7733 19.8804C25.5999 19.8804 26.3333 19.6537 26.9733 19.2004C27.6133 18.7204 28.1199 18.0937 28.4933 17.3204C28.8933 16.5204 29.0933 15.6537 29.0933 14.7204V3.40035C29.0933 2.92035 29.0133 2.58702 28.8533 2.40035C28.7199 2.21368 28.4666 2.10702 28.0933 2.08035L27.4133 2.00035C26.9599 1.94702 26.7333 1.77368 26.7333 1.48035C26.7333 1.13368 26.9866 0.96035 27.4933 0.96035H31.2133C31.6133 0.96035 31.8133 1.16035 31.8133 1.56035V17.0804C31.8133 17.5604 31.8799 17.8937 32.0133 18.0804C32.1733 18.2404 32.4399 18.347 32.8133 18.4004L33.6533 18.5204C33.9999 18.547 34.1733 18.6804 34.1733 18.9204C34.1733 19.1604 33.9599 19.3204 33.5333 19.4004C32.7066 19.507 32.0399 19.7204 31.5333 20.0404C31.0533 20.3604 30.6266 20.747 30.2533 21.2004C30.0133 21.4404 29.8133 21.5604 29.6533 21.5604C29.4133 21.5604 29.2933 21.4004 29.2933 21.0804V19.2404C29.2933 19.027 29.2133 18.907 29.0533 18.8804C28.9199 18.827 28.7733 18.8804 28.6133 19.0404C27.6266 20.027 26.7466 20.7204 25.9733 21.1204C25.2266 21.5204 24.3866 21.7204 23.4533 21.7204ZM35.9773 21.3604C35.5773 21.3604 35.3773 21.187 35.3773 20.8404C35.3773 20.7337 35.4173 20.6004 35.4973 20.4404C35.5773 20.2804 35.6707 20.0804 35.7773 19.8404L44.7373 2.80035C44.8707 2.58702 44.884 2.40035 44.7773 2.24035C44.6973 2.08035 44.524 2.00035 44.2573 2.00035H42.5773C41.2707 2.00035 40.2973 2.22702 39.6573 2.68035C39.044 3.13368 38.5373 3.78702 38.1373 4.64035L37.2573 6.48035C37.0973 6.82702 36.8973 7.00035 36.6573 7.00035C36.3107 7.00035 36.1773 6.80035 36.2573 6.40035L37.2173 0.96035C37.324 0.32035 37.564 0.000349998 37.9373 0.000349998C38.1773 0.000349998 38.324 0.0803506 38.3773 0.240352C38.4307 0.400351 38.524 0.560351 38.6573 0.72035C38.8173 0.88035 39.1507 0.96035 39.6573 0.96035H47.6573C48.0573 0.96035 48.2573 1.13368 48.2573 1.48035C48.2573 1.58702 48.2173 1.72035 48.1373 1.88035C48.084 2.04035 47.9907 2.24035 47.8573 2.48035L38.9373 19.5204C38.8307 19.7337 38.804 19.9204 38.8573 20.0804C38.9373 20.2404 39.124 20.3204 39.4173 20.3204H41.2173C42.7907 20.3204 43.8973 20.107 44.5373 19.6804C45.1773 19.227 45.6973 18.507 46.0973 17.5204L47.2973 14.6004C47.4573 14.2537 47.6573 14.0804 47.8973 14.0804C48.244 14.0804 48.3773 14.307 48.2973 14.7604L47.2573 20.6404C47.1773 21.1204 46.8973 21.3604 46.4173 21.3604H35.9773ZM55.7189 21.7204C55.0522 21.7204 54.4122 21.5737 53.7989 21.2804C53.1856 20.987 52.6789 20.5204 52.2789 19.8804C51.8789 19.2404 51.6789 18.387 51.6789 17.3204V3.40035C51.6789 2.92035 51.5989 2.58702 51.4389 2.40035C51.3056 2.21368 51.0522 2.10702 50.6789 2.08035L49.9989 2.00035C49.5456 1.94702 49.3189 1.77368 49.3189 1.48035C49.3189 1.13368 49.5722 0.96035 50.0789 0.96035H53.7989C54.1989 0.96035 54.3989 1.16035 54.3989 1.56035V16.4804C54.3989 17.707 54.6256 18.587 55.0789 19.1204C55.5589 19.627 56.2122 19.8804 57.0389 19.8804C57.8656 19.8804 58.5989 19.6537 59.2389 19.2004C59.8789 18.7204 60.3856 18.0937 60.7589 17.3204C61.1589 16.5204 61.3589 15.6537 61.3589 14.7204V3.40035C61.3589 2.92035 61.2789 2.58702 61.1189 2.40035C60.9856 2.21368 60.7322 2.10702 60.3589 2.08035L59.6789 2.00035C59.2256 1.94702 58.9989 1.77368 58.9989 1.48035C58.9989 1.13368 59.2522 0.96035 59.7589 0.96035H63.4789C63.8789 0.96035 64.0789 1.16035 64.0789 1.56035V17.0804C64.0789 17.5604 64.1456 17.8937 64.2789 18.0804C64.4389 18.2404 64.7056 18.347 65.0789 18.4004L65.9189 18.5204C66.2656 18.547 66.4389 18.6804 66.4389 18.9204C66.4389 19.1604 66.2256 19.3204 65.7989 19.4004C64.9722 19.507 64.3056 19.7204 63.7989 20.0404C63.3189 20.3604 62.8922 20.747 62.5189 21.2004C62.2789 21.4404 62.0789 21.5604 61.9189 21.5604C61.6789 21.5604 61.5589 21.4004 61.5589 21.0804V19.2404C61.5589 19.027 61.4789 18.907 61.3189 18.8804C61.1856 18.827 61.0389 18.8804 60.8789 19.0404C59.8922 20.027 59.0122 20.7204 58.2389 21.1204C57.4922 21.5204 56.6522 21.7204 55.7189 21.7204ZM73.883 21.7204C73.2163 21.7204 72.5763 21.5737 71.963 21.2804C71.3496 20.987 70.843 20.5204 70.443 19.8804C70.043 19.2404 69.843 18.387 69.843 17.3204V3.40035C69.843 2.92035 69.763 2.58702 69.603 2.40035C69.4696 2.21368 69.2163 2.10702 68.843 2.08035L68.163 2.00035C67.7096 1.94702 67.483 1.77368 67.483 1.48035C67.483 1.13368 67.7363 0.96035 68.243 0.96035H71.963C72.363 0.96035 72.563 1.16035 72.563 1.56035V16.4804C72.563 17.707 72.7896 18.587 73.243 19.1204C73.723 19.627 74.3763 19.8804 75.203 19.8804C76.0296 19.8804 76.763 19.6537 77.403 19.2004C78.043 18.7204 78.5496 18.0937 78.923 17.3204C79.323 16.5204 79.523 15.6537 79.523 14.7204V3.40035C79.523 2.92035 79.443 2.58702 79.283 2.40035C79.1496 2.21368 78.8963 2.10702 78.523 2.08035L77.843 2.00035C77.3896 1.94702 77.163 1.77368 77.163 1.48035C77.163 1.13368 77.4163 0.96035 77.923 0.96035H81.643C82.043 0.96035 82.243 1.16035 82.243 1.56035V17.0804C82.243 17.5604 82.3096 17.8937 82.443 18.0804C82.603 18.2404 82.8696 18.347 83.243 18.4004L84.083 18.5204C84.4296 18.547 84.603 18.6804 84.603 18.9204C84.603 19.1604 84.3896 19.3204 83.963 19.4004C83.1363 19.507 82.4696 19.7204 81.963 20.0404C81.483 20.3604 81.0563 20.747 80.683 21.2004C80.443 21.4404 80.243 21.5604 80.083 21.5604C79.843 21.5604 79.723 21.4004 79.723 21.0804V19.2404C79.723 19.027 79.643 18.907 79.483 18.8804C79.3496 18.827 79.203 18.8804 79.043 19.0404C78.0563 20.027 77.1763 20.7204 76.403 21.1204C75.6563 21.5204 74.8163 21.7204 73.883 21.7204ZM89.487 21.7204C88.9004 21.7204 88.3937 21.5337 87.967 21.1604C87.567 20.7604 87.367 20.2404 87.367 19.6004C87.367 18.987 87.567 18.4937 87.967 18.1204C88.3937 17.7204 88.9004 17.5204 89.487 17.5204C90.0204 17.5204 90.5004 17.7204 90.927 18.1204C91.3537 18.4937 91.567 18.987 91.567 19.6004C91.567 20.2404 91.3537 20.7604 90.927 21.1604C90.5004 21.5337 90.0204 21.7204 89.487 21.7204Z" fill="white"/>
</svg>
